<svg xmlns="http://www.w3.org/2000/svg" width="21" height="21" viewBox="0 0 21 21" fill="none">
  <path d="M18.25 10.5C18.6642 10.5 19.0034 10.8364 18.9669 11.249C18.8663 12.3867 18.5371 13.4951 17.9963 14.5069C17.3374 15.7397 16.3846 16.7909 15.2223 17.5675C14.0601 18.3441 12.7242 18.8221 11.3331 18.9591C9.94204 19.0961 8.53862 18.8879 7.24719 18.353C5.95576 17.818 4.81619 16.9729 3.92941 15.8923C3.04264 14.8118 2.43603 13.5292 2.16333 12.1583C1.89062 10.7873 1.96024 9.37022 2.36601 8.03258C2.69903 6.93475 3.25004 5.91824 3.98332 5.04263C4.24926 4.72506 4.72703 4.72703 5.01992 5.01992L5.44383 5.44383C5.73673 5.73673 5.73271 6.2092 5.47607 6.53433C4.98201 7.16023 4.60785 7.87476 4.3751 8.64203C4.06956 9.64928 4.01714 10.7163 4.22248 11.7487C4.42783 12.781 4.8846 13.7468 5.55235 14.5604C6.22009 15.3741 7.07819 16.0105 8.05063 16.4133C9.02308 16.8161 10.0799 16.9728 11.1274 16.8697C12.1749 16.7665 13.1807 16.4066 14.0559 15.8218C14.9311 15.237 15.6486 14.4455 16.1447 13.5172C16.5227 12.8101 16.7634 12.0402 16.8566 11.2483C16.905 10.8369 17.2363 10.5 17.6505 10.5H18.25Z" fill="#1B141F"/>
</svg>